<?xml version="1.0" standalone="no"?>
<!DOCTYPE svg PUBLIC "-//W3C//DTD SVG 20010904//EN"
 "http://www.w3.org/TR/2001/REC-SVG-20010904/DTD/svg10.dtd">
<svg version="1.0" xmlns="http://www.w3.org/2000/svg"
 width="126" height="142.000000pt" viewBox="0 0 126 142"
 preserveAspectRatio="xMidYMid meet">

<g transform="translate(0.000000,142.000000) scale(0.100000,-0.100000)"
fill="black" stroke="none">
<path d="M324 1259 c-142 -83 -265 -156 -272 -162 -8 -6 -22 -28 -33 -48 -18
-35 -19 -62 -19 -342 0 -298 0 -305 23 -347 21 -40 43 -55 267 -187 135 -79
260 -150 279 -158 74 -32 90 -25 476 202 231 137 215 99 215 487 0 269 -2 305
-19 341 -10 22 -24 45 -32 52 -8 6 -131 79 -274 162 -232 135 -265 151 -305
151 -41 0 -74 -16 -306 -151z m606 -28 c143 -83 263 -160 275 -175 19 -26 20
-45 23 -340 l3 -312 -23 -34 c-18 -27 -83 -70 -268 -177 -135 -79 -261 -148
-282 -154 -45 -14 -44 -15 -352 164 -131 76 -239 145 -250 161 -20 26 -21 43
-24 316 -4 308 2 357 43 393 12 12 132 85 266 163 214 125 250 142 289 143 40
0 72 -16 300 -148z"/>
<path d="M90 940 c-19 -19 -20 -33 -20 -242 0 -124 5 -240 11 -261 17 -61 74
-108 284 -232 110 -65 210 -125 223 -133 l22 -14 0 195 0 194 -118 68 c-64 37
-136 79 -159 92 l-43 25 0 -64 1 -63 102 -60 102 -61 3 -62 c2 -34 -1 -62 -5
-61 -4 0 -75 42 -158 92 l-150 92 -3 183 c-1 100 1 182 5 182 5 0 100 -54 212
-120 112 -66 206 -120 208 -120 2 0 3 28 1 62 l-3 62 -224 133 c-124 73 -235
133 -248 133 -13 0 -32 -9 -43 -20z"/>
</g>
</svg>
